<svg xmlns="http://www.w3.org/2000/svg" viewBox="0 0 500 600" font-family="'Barlow Condensed','Arial Narrow',sans-serif">
<defs>
 <mask id="perf">
  <rect x="14" y="14" width="472" height="572" rx="8" fill="white"/>
  <circle cx="14.0" cy="14.0" r="9" fill="black"/><circle cx="14.0" cy="586.0" r="9" fill="black"/><circle cx="40.2" cy="14.0" r="9" fill="black"/><circle cx="40.2" cy="586.0" r="9" fill="black"/><circle cx="66.4" cy="14.0" r="9" fill="black"/><circle cx="66.4" cy="586.0" r="9" fill="black"/><circle cx="92.7" cy="14.0" r="9" fill="black"/><circle cx="92.7" cy="586.0" r="9" fill="black"/><circle cx="118.9" cy="14.0" r="9" fill="black"/><circle cx="118.9" cy="586.0" r="9" fill="black"/><circle cx="145.1" cy="14.0" r="9" fill="black"/><circle cx="145.1" cy="586.0" r="9" fill="black"/><circle cx="171.3" cy="14.0" r="9" fill="black"/><circle cx="171.3" cy="586.0" r="9" fill="black"/><circle cx="197.6" cy="14.0" r="9" fill="black"/><circle cx="197.6" cy="586.0" r="9" fill="black"/><circle cx="223.8" cy="14.0" r="9" fill="black"/><circle cx="223.8" cy="586.0" r="9" fill="black"/><circle cx="250.0" cy="14.0" r="9" fill="black"/><circle cx="250.0" cy="586.0" r="9" fill="black"/><circle cx="276.2" cy="14.0" r="9" fill="black"/><circle cx="276.2" cy="586.0" r="9" fill="black"/><circle cx="302.4" cy="14.0" r="9" fill="black"/><circle cx="302.4" cy="586.0" r="9" fill="black"/><circle cx="328.7" cy="14.0" r="9" fill="black"/><circle cx="328.7" cy="586.0" r="9" fill="black"/><circle cx="354.9" cy="14.0" r="9" fill="black"/><circle cx="354.9" cy="586.0" r="9" fill="black"/><circle cx="381.1" cy="14.0" r="9" fill="black"/><circle cx="381.1" cy="586.0" r="9" fill="black"/><circle cx="407.3" cy="14.0" r="9" fill="black"/><circle cx="407.3" cy="586.0" r="9" fill="black"/><circle cx="433.6" cy="14.0" r="9" fill="black"/><circle cx="433.6" cy="586.0" r="9" fill="black"/><circle cx="459.8" cy="14.0" r="9" fill="black"/><circle cx="459.8" cy="586.0" r="9" fill="black"/><circle cx="486.0" cy="14.0" r="9" fill="black"/><circle cx="486.0" cy="586.0" r="9" fill="black"/><circle cx="14.0" cy="14.0" r="9" fill="black"/><circle cx="486.0" cy="14.0" r="9" fill="black"/><circle cx="14.0" cy="40.0" r="9" fill="black"/><circle cx="486.0" cy="40.0" r="9" fill="black"/><circle cx="14.0" cy="66.0" r="9" fill="black"/><circle cx="486.0" cy="66.0" r="9" fill="black"/><circle cx="14.0" cy="92.0" r="9" fill="black"/><circle cx="486.0" cy="92.0" r="9" fill="black"/><circle cx="14.0" cy="118.0" r="9" fill="black"/><circle cx="486.0" cy="118.0" r="9" fill="black"/><circle cx="14.0" cy="144.0" r="9" fill="black"/><circle cx="486.0" cy="144.0" r="9" fill="black"/><circle cx="14.0" cy="170.0" r="9" fill="black"/><circle cx="486.0" cy="170.0" r="9" fill="black"/><circle cx="14.0" cy="196.0" r="9" fill="black"/><circle cx="486.0" cy="196.0" r="9" fill="black"/><circle cx="14.0" cy="222.0" r="9" fill="black"/><circle cx="486.0" cy="222.0" r="9" fill="black"/><circle cx="14.0" cy="248.0" r="9" fill="black"/><circle cx="486.0" cy="248.0" r="9" fill="black"/><circle cx="14.0" cy="274.0" r="9" fill="black"/><circle cx="486.0" cy="274.0" r="9" fill="black"/><circle cx="14.0" cy="300.0" r="9" fill="black"/><circle cx="486.0" cy="300.0" r="9" fill="black"/><circle cx="14.0" cy="326.0" r="9" fill="black"/><circle cx="486.0" cy="326.0" r="9" fill="black"/><circle cx="14.0" cy="352.0" r="9" fill="black"/><circle cx="486.0" cy="352.0" r="9" fill="black"/><circle cx="14.0" cy="378.0" r="9" fill="black"/><circle cx="486.0" cy="378.0" r="9" fill="black"/><circle cx="14.0" cy="404.0" r="9" fill="black"/><circle cx="486.0" cy="404.0" r="9" fill="black"/><circle cx="14.0" cy="430.0" r="9" fill="black"/><circle cx="486.0" cy="430.0" r="9" fill="black"/><circle cx="14.0" cy="456.0" r="9" fill="black"/><circle cx="486.0" cy="456.0" r="9" fill="black"/><circle cx="14.0" cy="482.0" r="9" fill="black"/><circle cx="486.0" cy="482.0" r="9" fill="black"/><circle cx="14.0" cy="508.0" r="9" fill="black"/><circle cx="486.0" cy="508.0" r="9" fill="black"/><circle cx="14.0" cy="534.0" r="9" fill="black"/><circle cx="486.0" cy="534.0" r="9" fill="black"/><circle cx="14.0" cy="560.0" r="9" fill="black"/><circle cx="486.0" cy="560.0" r="9" fill="black"/><circle cx="14.0" cy="586.0" r="9" fill="black"/><circle cx="486.0" cy="586.0" r="9" fill="black"/>
 </mask>
 <clipPath id="panelClip"><rect x="40" y="40" width="420" height="520" rx="4"/></clipPath>
</defs>
<rect x="14" y="14" width="472" height="572" rx="8" fill="#FFFBF8" mask="url(#perf)"/>
<rect x="40" y="40" width="420" height="520" rx="4" fill="#051829"/>
<rect x="46" y="46" width="408" height="508" rx="2" fill="none" stroke="#F49A0B" stroke-width="1.5" opacity="0.55"/>
<g clip-path="url(#panelClip)"><path d="M 40,486 L 40,470 L 92,452 L 145,476 L 198,448 L 250,470 L 302,455 L 355,478 L 408,450 L 460,472 L 460,486 L 460,560 L 40,560 Z" fill="#FFFBF8" opacity="0.1"/><path d="M 40,492 L 40,492 L 110,468 L 180,486 L 250,458 L 320,488 L 390,472 L 460,492 L 460,492 L 460,560 L 40,560 Z" fill="#FFFBF8" opacity="0.16"/></g>
<text x="250" y="126" text-anchor="middle" font-size="60" font-weight="800" fill="#FFFBF8" letter-spacing="2">MISHIGAMI</text>
<line x1="84" y1="150" x2="134" y2="150" stroke="#F49A0B" stroke-width="2"/>
<line x1="366" y1="150" x2="416" y2="150" stroke="#F49A0B" stroke-width="2"/>
<text x="250" y="158" text-anchor="middle" font-size="26" font-weight="700" fill="#F49A0B" letter-spacing="10">POSTCARD</text>
<path d="M 150 206 C 210 188, 290 232, 350 210" fill="none" stroke="#F49A0B" stroke-width="2" stroke-dasharray="2 6" stroke-linecap="round" opacity="0.85"/>
<g fill="#F49A0B">
 <path d="M150 184 c6 0 10 5 10 10 c0 7 -10 16 -10 16 c0 0 -10 -9 -10 -16 c0 -5 4 -10 10 -10 Z"/>
 <circle cx="150" cy="194" r="3.4" fill="#051829"/>
 <path d="M350 188 c6 0 10 5 10 10 c0 7 -10 16 -10 16 c0 0 -10 -9 -10 -16 c0 -5 4 -10 10 -10 Z"/>
 <circle cx="350" cy="198" r="3.4" fill="#051829"/>
</g>
<g transform="translate(135.5,214.4) scale(0.118)">
  <!-- crown -->
  <path d="M 770,460 L 770,365 L 845,300 L 920,365 L 975,285 L 1030,365 L 1105,300 L 1180,365 L 1180,460 Z" fill="#F49A0B"/>
  <g fill="none" stroke="#FFFBF8" stroke-width="95" stroke-linecap="round" stroke-linejoin="round">
    <!-- handlebar tops -->
    <path d="M 610,760 L 610,665 Q 610,615 660,615 L 1280,615 Q 1330,615 1330,665 L 1330,760"/>
    <!-- stem + seatpost (central) -->
    <path d="M 975,770 L 975,1700"/>
    <!-- rider arms / shoulders -->
    <path d="M 720,1180 L 720,955 Q 720,905 770,905 L 1180,905 Q 1230,905 1230,955 L 1230,1180"/>
  </g>
</g>
<text x="250" y="506" text-anchor="middle" font-size="15" font-weight="700" letter-spacing="2.2">
 <tspan fill="#FFFBF8">MIDWEST </tspan><tspan fill="#F49A0B">ULTRA</tspan><tspan fill="#FFFBF8"> CYCLING</tspan>
</text>
<line x1="150" y1="536" x2="196" y2="536" stroke="#F49A0B" stroke-width="2"/>
<line x1="304" y1="536" x2="350" y2="536" stroke="#F49A0B" stroke-width="2"/>
<text x="250" y="548" text-anchor="middle" font-size="34" font-weight="800" fill="#F49A0B" letter-spacing="6">2026</text>
</svg>